# xmcd
#
# Track frame offsets: 
#        150
#        12555
#        25205
#        39335
#        53430
#        68710
#        81570
#        94310
#        104913
#        118103
#        131770
#        143213
#        155638
#        168925
#
# Disc length: 2382 seconds
#
# Revision: 3
# Processed by: cddbd v1.5.2PL0 Copyright (c) Steve Scherf et al.
# Submitted via: ExactAudioCopy v0.99pb5
#
DISCID=c5094c0e
DTITLE=Gene Simmons - Cajun Country from Memphis, Tennessee
DYEAR=1987
DGENRE=Country
TTITLE0=Gene Simmons/Catahoula Cur Dog
TTITLE1=Gene Simmons/You Pulled The Plug And Love Went Down The Drain
TTITLE2=Gene Simmons/Five O'Clock Happy Hour
TTITLE3=Gene Simmons/It's So Hard To Believe
TTITLE4=Gene Simmons/River Rat
TTITLE5=Gene Simmons/The Haunted House
TTITLE6=Gene Simmons/Why Didn't Think Of That
TTITLE7=Gene Simmons/Way Down Yonder In Baton Rouge
TTITLE8=Gene Simmons/Patchwork Quilt
TTITLE9=Gene Simmons/Kings And Queens
TTITLE10=Gene Simmons/I Remember Loving You
TTITLE11=Gene Simmons/In Memphis
TTITLE12=Gene Simmons/Will The Circle Be Unbroken
TTITLE13=Gene Simmons/86 Miles To Go
EXTD=YEAR: 1987
EXTT0=
EXTT1=
EXTT2=
EXTT3=
EXTT4=
EXTT5=
EXTT6=
EXTT7=
EXTT8=
EXTT9=
EXTT10=
EXTT11=
EXTT12=
EXTT13=
PLAYORDER=
